Coordinates
version=1
nRows=17
nColumns=36
inDegrees=yes

Units are S.I. units (second, meters, Newtons, ...)
If the header above contains a line with 'inDegrees', this indicates whether rotational values are in degrees (yes) or radians (no).

endheader
time	pelvis_tilt	pelvis_list	pelvis_rotation	pelvis_tx	pelvis_ty	pelvis_tz	hip_flexion_r	hip_adduction_r	hip_rotation_r	knee_angle_r	knee_angle_r_beta	ankle_angle_r	subtalar_angle_r	mtp_angle_r	hip_flexion_l	hip_adduction_l	hip_rotation_l	knee_angle_l	knee_angle_l_beta	ankle_angle_l	subtalar_angle_l	mtp_angle_l	lumbar_extension	lumbar_bending	lumbar_rotation	arm_flex_r	arm_add_r	arm_rot_r	elbow_flex_r	pro_sup_r	arm_flex_l	arm_add_l	arm_rot_l	elbow_flex_l	pro_sup_l
      0.00000000	     11.35054932	      1.04052054	     13.78918119	      1.13566007	      0.91731712	      0.03101492	     -9.57323009	     -0.12322057	     -2.14953951	     14.65924658	      0.25585212	     11.02657682	     -5.14862773	     -6.95997529	    -16.03068038	      2.21082740	      2.76366646	      3.36360798	      0.05870603	     13.78628343	      0.29228588	     -6.95997529	     -9.79770581	      1.34346574	     -6.87579031	     35.94842200	      9.59078477	     53.78369426	    107.74919204	     82.99916565	     45.74782028	     -0.47211490	     64.40873422	    123.42548938	     81.47940110
      0.01666670	     11.42948996	      0.74966213	     12.80603917	      1.13510151	      0.91392535	      0.03179104	     -9.66955214	      0.11413682	     -2.73780196	     13.63114944	      0.23790844	     13.16341403	     -4.46404281	     -7.11276624	    -16.77288637	      2.31439794	      3.92148412	      2.65452212	      0.04633015	     14.88065121	      0.22069834	     -7.11276624	    -10.19238399	      1.75402217	     -6.45822602	     40.63768313	      7.55335934	     63.57763759	    114.42652755	     92.64477817	     47.30569542	     -1.14671547	     60.99432029	    127.65444939	     96.37442352
      0.03333330	     11.39689308	      0.93093331	     11.91056283	      1.13391236	      0.91188959	      0.03306534	     -9.41398227	     -0.46027506	     -3.37967712	     13.34275700	      0.23287504	     14.75082507	     -3.50224452	     -7.15668667	    -16.94471759	      2.97199573	      4.34189510	      2.36571622	      0.04128954	     14.63495703	     -0.69943599	     -7.15668667	    -10.49369712	      1.09275590	     -6.54171468	     40.82570138	      8.89682988	     63.51030291	    115.96967499	     97.08464872	     48.49864188	     -2.18377752	     61.99657501	    128.61150290	    103.33691246
      0.05000000	     12.17020805	      1.45960449	     11.90722635	      1.13138169	      0.91222679	      0.03332031	    -10.04396664	     -0.98698727	     -4.53384296	     13.43269590	      0.23444477	     15.73679087	     -3.11240823	     -7.27865060	    -17.69294275	      3.53036525	      4.51913344	      2.61833881	      0.04569863	     14.66211283	     -0.89656999	     -7.27865060	    -11.62051095	      0.46768514	     -7.03222372	     41.60555094	     10.04391164	     63.29471185	    115.95955435	     97.47775682	     50.05218055	     -2.63104153	     62.41728311	    128.70007375	    104.77516557
      0.06666670	     12.81615822	      1.98224957	     11.68389622	      1.12912956	      0.91533356	      0.03386457	    -10.43618382	     -1.52457299	     -5.22756503	     13.73230300	      0.23967390	     16.51404432	     -2.88445756	     -7.29062780	    -18.16687621	      4.14672491	      4.20727475	      3.15601157	      0.05508279	     14.68715845	     -0.85089305	     -7.29062780	    -12.79848114	     -0.17659869	     -6.79357873	     42.41026125	     10.59323909	     63.43511148	    115.73118041	     97.12374287	     51.50172500	     -2.47688398	     63.21496389	    128.63168192	    104.38532612
      0.08333330	     13.46121868	      2.42488425	     11.43607615	      1.12645105	      0.91329754	      0.03488212	    -10.72648760	     -1.98328540	     -5.90826073	     14.38219366	      0.25101663	     17.02226725	     -2.94212277	     -7.35175302	    -18.44620106	      4.65070403	      4.07993672	      3.91514496	      0.06833217	     14.72878473	     -1.24861400	     -7.35175302	    -13.99323237	     -0.82098216	     -6.33911385	     42.93455926	     10.83857994	     63.23997942	    115.84627275	     95.96169181	     53.13764343	     -1.87587471	     63.92658320	    128.27366147	    104.20786154
      0.10000000	     14.03292208	      2.62297472	     11.19217133	      1.12478322	      0.91622831	      0.03531890	    -10.95183384	     -2.15126444	     -6.20314955	     15.00350918	      0.26186063	     16.80994105	     -3.53864890	     -7.38049409	    -18.66996787	      4.85999126	      3.64230380	      4.52947240	      0.07905421	     14.80211909	     -1.27670954	     -7.38049409	    -15.03242049	     -1.06469087	     -6.06761374	     43.16325449	     10.99309251	     63.12182372	    116.01213335	     92.90065278	     54.04724264	     -1.57637055	     64.29795810	    128.38937729	    101.45849992
      0.11666670	     14.59488887	      2.75979746	     11.00069739	      1.12278405	      0.91372980	      0.03600594	    -11.19424921	     -2.27945348	     -6.65897870	     15.70499635	      0.27410390	     16.71858066	     -3.76276555	     -7.42003375	    -18.92905950	      4.97686088	      3.66585592	      4.99692498	      0.08721279	     14.59240107	     -1.77889326	     -7.42003375	    -16.02252211	     -1.28779651	     -5.45557914	     43.84726570	     10.91327500	     62.65333841	    116.34370074	     94.36242872	     55.46518380	     -0.90065579	     64.47671076	    127.64576045	    103.63247190
      0.13333330	     14.99294978	      2.84571602	     10.88675829	      1.12174648	      0.91392850	      0.03636029	    -11.33324904	     -2.33475580	     -6.85752722	     16.26046418	      0.28379864	     16.37517516	     -4.25925246	     -7.45059277	    -19.02574901	      5.02902555	      3.71269794	      5.34011467	      0.09320258	     14.34201949	     -2.28112688	     -7.45059277	    -16.74498801	     -1.39260049	     -5.13064938	     44.45241876	     10.95061442	     62.40773855	    116.53879129	     93.07488348	     56.37901667	     -0.60718308	     64.46668323	    127.52011491	    102.37109701
      0.15000000	     15.26841240	      2.80278484	     10.90081877	      1.12046056	      0.91382039	      0.03651760	    -11.37239676	     -2.28172213	     -7.15721093	     16.76389585	      0.29258518	     16.22270192	     -4.46392811	     -7.45796133	    -19.09967975	      4.89779903	      3.52727294	      5.60274190	      0.09778629	     14.43753414	     -2.03811833	     -7.45796133	    -17.28500936	     -1.27862002	     -4.88410770	     45.11498723	     10.95900521	     62.26463094	    116.75747478	     90.97101761	     57.05486681	     -0.42420903	     64.51687367	    127.53202607	    100.21591373
      0.16666670	     15.30391293	      2.79045481	     10.94265494	      1.11432246	      0.91316245	      0.03413008	    -11.10368040	     -2.37120104	     -7.51685147	     17.35579768	      0.30291581	     16.00340217	     -4.66199441	     -7.45817075	    -18.90010420	      4.88258156	      3.68079111	      5.85797149	      0.10224089	     14.27435202	     -2.03979213	     -7.45817075	    -17.68135875	     -1.09318799	     -4.61409244	     46.21798549	     10.87493432	     62.01158409	    116.66609718	     91.00545407	     57.53882192	     -0.34744666	     64.59581285	    127.43373176	    100.29909519
      0.18333330	     15.53669131	      2.77492635	     10.91206340	      1.11922928	      0.91371856	      0.03649750	    -11.18255016	     -2.34884770	     -7.58367492	     17.73682960	      0.30956608	     15.98695768	     -5.03629035	     -7.45914202	    -18.95731707	      4.81097172	      3.80782409	      6.09988268	      0.10646304	     14.28350763	     -2.39225531	     -7.45914202	    -18.31354377	     -1.14364016	     -3.99031283	     47.16447279	     10.62356611	     62.21424422	    116.53676975	     91.19111497	     58.32974521	     -0.00949114	     65.46769733	    127.40929660	    100.64779846
      0.20000000	     15.55881094	      2.75376446	     10.88613989	      1.11934679	      0.91375284	      0.03652497	    -11.00474772	     -2.38666159	     -7.70342332	     18.15778356	      0.31691311	     15.93068207	     -5.31851670	     -7.46651080	    -18.82724386	      4.76408972	      3.72762321	      6.27303223	      0.10948507	     14.30061638	     -2.12019361	     -7.46651080	    -18.48959890	     -1.19437596	     -3.64943908	     47.17113765	     10.41158134	     61.97158739	    116.49957753	     92.56185804	     58.32967632	      0.02312272	     65.38483562	    127.01532695	    102.78344578
      0.21666670	     15.50973345	      2.70960531	     10.95590353	      1.11875080	      0.91355311	      0.03644691	    -10.81211480	     -2.39844588	     -7.94167726	     18.46958902	      0.32235514	     15.88569072	     -5.50953748	     -7.46839150	    -18.63226511	      4.67886658	      3.89662624	      6.44837391	      0.11254536	     14.34237858	     -2.02023551	     -7.46839150	    -18.44053125	     -1.18827938	     -3.85558816	     46.70032760	     10.27838072	     62.10321515	    116.29650284	     91.89470703	     58.18705282	     -0.38361167	     65.12372192	    126.79116621	    101.85389224
      0.23333330	     15.52066095	      2.67696222	     11.01274319	      1.11894167	      0.91626360	      0.03598008	    -10.66847492	     -2.43348863	     -8.19970714	     18.83494872	      0.32873187	     15.89222869	     -5.61710138	     -7.47189605	    -18.54029881	      4.60375528	      4.11929863	      6.59639676	      0.11512884	     14.34299426	     -2.07924448	     -7.47189605	    -18.45325045	     -1.09326081	     -4.18801577	     46.25206303	     10.27827999	     62.59086557	    116.29662742	     91.97811713	     57.69618383	     -0.63872603	     64.96306471	    126.82367214	    102.99349230
      0.25000000	     15.52444698	      2.65549101	     11.02143481	      1.11367344	      0.91532219	      0.03925789	    -10.44596232	     -2.45261257	     -8.35609675	     19.23290821	      0.33567757	     15.85032330	     -5.78179055	     -7.47220666	    -18.32030035	      4.55078802	      4.16564715	      6.87527932	      0.11999626	     14.45758749	     -1.99985075	     -7.47220666	    -18.62740410	     -1.14141811	     -4.20846639	     46.44808586	     10.52235415	     62.75416666	    116.29733648	     92.02907430	     57.95636747	     -0.62161126	     64.86046703	    126.59905385	    102.96475633
      0.26666670	     15.55671775	      2.61164906	     11.04165291	      1.11899397	      0.91615055	      0.03592134	    -10.37477986	     -2.45997387	     -8.49971183	     19.45758931	      0.33959900	     15.81219022	     -5.85641862	     -7.47231906	    -18.31205750	      4.45316702	      4.25180262	      6.90908384	      0.12058626	     14.46896917	     -1.89389588	     -7.47231906	    -18.61580795	     -1.04133576	     -4.17135399	     46.40779980	     10.72851067	     62.90574599	    116.48556395	     92.04967664	     57.85338630	     -0.49633246	     64.85449477	    126.55954089	    102.95262530
